<svg width="47" height="68" viewBox="0 0 47 68" fill="none" xmlns="http://www.w3.org/2000/svg">
<path fill-rule="evenodd" clip-rule="evenodd" d="M7.94318 6.87924C3.77868 10.7146 1.20801 15.9753 0.74114 21.6176C0.223845 27.9175 2.16967 34.1725 6.16941 39.0672L19.6194 55.5204C20.1293 56.1445 20.7715 56.6474 21.4997 56.9928C22.2278 57.3381 23.0236 57.5173 23.8295 57.5173C24.6354 57.5173 25.4312 57.3381 26.1594 56.9928C26.8875 56.6474 27.5298 56.1445 28.0397 55.5204L41.4925 39.0672C45.4912 34.1721 47.436 27.9171 46.9179 21.6176C46.4511 15.9753 43.8804 10.7146 39.7159 6.87924C35.5514 3.04384 30.0974 0.913952 24.4358 0.912109H23.2233C17.5617 0.913952 12.1077 3.04384 7.94318 6.87924Z" fill="#444444"/>
<path d="M18.7293 14.2167C18.5244 13.1965 19.294 12.1763 20.447 11.9416C20.9902 11.8314 21.543 11.908 22.0004 12.1619C22.484 12.4277 22.808 12.8564 22.9105 13.3641L21.9766 13.5533C21.9313 13.3258 21.7764 13.1294 21.543 13.0001C21.2833 12.8564 20.9616 12.8133 20.6376 12.8804C20.0015 13.0097 19.5632 13.5246 19.6656 14.0251L18.7317 14.2143L18.7293 14.2167Z" fill="white" stroke="white" stroke-width="0.5"/>
<path d="M30.6311 23.2504C30.2738 23.2504 29.9021 23.1379 29.5543 22.9151C29.0587 22.5966 28.6418 22.0841 28.3845 21.4686C27.808 20.0987 28.1653 18.6833 29.1969 18.2426C30.2309 17.802 31.4912 18.53 32.0677 19.8999C32.3274 20.5154 32.406 21.174 32.2869 21.7512C32.1535 22.4026 31.7771 22.9032 31.2553 23.1259C31.0576 23.2097 30.8479 23.2504 30.6311 23.2504ZM29.8211 19.3132C29.7639 19.3132 29.7091 19.3228 29.6615 19.3443C29.3089 19.4952 29.1588 20.2352 29.4804 21.0016C29.6448 21.3896 29.9045 21.7201 30.1951 21.9069C30.3262 21.9907 30.5763 22.1152 30.7907 22.0242C31.0052 21.9332 31.0909 21.665 31.1219 21.5117C31.191 21.174 31.1362 20.7549 30.9718 20.3669C30.6931 19.7059 30.1832 19.3132 29.8235 19.3132H29.8211Z" fill="white" stroke="white" stroke-width="0.5"/>
<path d="M12.8254 34.0658C12.6419 34.0658 12.4609 33.982 12.3441 33.8216C12.1488 33.5557 12.206 33.1797 12.4704 32.9833C15.1578 30.9979 14.7337 26.6392 14.7289 26.5961C14.7289 26.5865 14.7289 26.5769 14.7266 26.565C14.5741 23.8204 14.5836 22.005 14.7528 21.5859L15.8558 22.0386C15.8558 22.0386 15.8653 22.0242 15.8749 21.9835C15.8677 22.0122 15.7057 22.7355 15.9154 26.4835C15.9535 26.8571 16.3609 31.5967 13.178 33.9461C13.0708 34.0251 12.9493 34.0634 12.8254 34.0634V34.0658Z" fill="white" stroke="white" stroke-width="0.5"/>
<path d="M16.0771 20.0458C15.9771 20.0458 15.8746 20.0194 15.7817 19.9668C15.4958 19.8039 15.3958 19.4375 15.5601 19.1501L15.6102 19.0591C15.8484 18.6352 16.2892 17.8497 17.1301 17.033C17.366 16.8031 17.7448 16.8103 17.9711 17.0498C18.1999 17.2869 18.1927 17.6676 17.9545 17.8976C17.2397 18.5897 16.8681 19.2531 16.6441 19.6482L16.5893 19.744C16.4798 19.938 16.2772 20.0458 16.0724 20.0458H16.0771Z" fill="white" stroke="white" stroke-width="0.5"/>
<path d="M28.8636 19.3895C28.6683 19.3895 28.4777 19.2937 28.3633 19.1165C24.8564 13.7016 19.6389 16.4629 19.4197 16.585C19.1315 16.7431 18.7693 16.6353 18.6121 16.3455C18.4549 16.0558 18.5597 15.6917 18.848 15.5337C21.0445 14.3218 26.0691 13.3782 29.3616 18.4626C29.5402 18.7405 29.464 19.1117 29.1876 19.2913C29.0876 19.3559 28.9756 19.3871 28.8636 19.3871V19.3895Z" fill="white" stroke="white" stroke-width="0.5"/>
<path d="M16.3584 22.2926C15.8843 22.2926 15.3935 22.1753 14.9027 21.9382C13.3923 21.2054 12.7395 19.3661 13.4423 17.8381C13.4518 17.8189 13.4614 17.8022 13.4709 17.7854C13.4947 17.7447 14.0713 16.7748 14.8432 15.927C15.0647 15.6827 15.4412 15.6659 15.6842 15.891C15.9272 16.1138 15.9438 16.4922 15.7199 16.7364C15.0981 17.4166 14.6025 18.2189 14.5096 18.3722C14.0975 19.3062 14.5001 20.4174 15.4197 20.8629C16.3989 21.3395 17.2399 21.1143 17.9856 20.1731C18.9052 18.7506 19.0648 18.6117 19.1244 18.5614C19.3745 18.3458 19.7509 18.3746 19.963 18.626C20.1703 18.8703 20.1488 19.2319 19.9201 19.4499C19.801 19.584 19.3388 20.2761 18.9671 20.8485C18.9576 20.8629 18.9457 20.8796 18.9362 20.894C18.2119 21.8185 17.3137 22.295 16.356 22.295L16.3584 22.2926ZM19.9177 19.4523C19.9177 19.4523 19.9082 19.4619 19.9034 19.4666C19.9082 19.4619 19.913 19.4571 19.9177 19.4523Z" fill="white" stroke="white" stroke-width="0.5"/>
<path d="M19.8798 39.1093C18.4456 39.1093 17.109 39.0135 15.9202 38.8171C12.947 38.3286 11.2555 37.2963 11.0291 35.8259C10.8028 34.3554 12.1036 32.8562 14.791 31.4887C17.2448 30.2385 20.5993 29.2399 24.2349 28.6747C27.8704 28.1095 31.3678 28.0424 34.0838 28.4879C37.057 28.9764 38.7485 30.0086 38.9749 31.4791C39.4728 34.7122 32.5423 37.5766 25.7691 38.6327C23.725 38.9512 21.7238 39.1117 19.8798 39.1117V39.1093ZM30.1242 29.3931C28.3445 29.3931 26.4052 29.5488 24.4183 29.8577C20.9042 30.4038 17.6761 31.3641 15.3318 32.5568C13.2424 33.6202 12.075 34.7745 12.2084 35.6439C12.3418 36.5132 13.8023 37.258 16.1132 37.6364C18.7076 38.0627 22.074 37.9957 25.5881 37.4472C33.1284 36.2737 38.0743 33.4573 37.7979 31.6611C37.6645 30.7918 36.2041 30.0469 33.8932 29.6685C32.7663 29.4841 31.4917 29.3907 30.1242 29.3907V29.3931Z" fill="white" stroke="white" stroke-width="0.5"/>
<path d="M35.7061 30.0685C35.6585 30.0685 35.6085 30.0613 35.5608 30.0494C32.6924 29.3213 31.3344 25.0536 31.2796 24.8716C31.1819 24.5554 31.3558 24.2201 31.6703 24.122C31.9848 24.0214 32.3183 24.1986 32.416 24.5147C32.4279 24.553 33.6311 28.3226 35.8538 28.8878C36.1731 28.9693 36.3661 29.295 36.2851 29.6159C36.216 29.8865 35.9753 30.0685 35.7085 30.0685H35.7061Z" fill="white" stroke="white" stroke-width="0.5"/>
<path d="M24.9833 35.8215C23.1489 35.8215 21.5264 34.6192 21.2334 32.9452L22.1721 32.7775C22.4079 34.1235 23.8684 35.0431 25.4265 34.8324C26.2389 34.7222 26.956 34.3127 27.3919 33.7092C27.7517 33.2134 27.8923 32.6243 27.7922 32.0471L28.7309 31.8818C28.8762 32.7177 28.6761 33.5679 28.1615 34.2744C27.5706 35.0862 26.6224 35.6347 25.5527 35.7808C25.3597 35.8071 25.1692 35.8191 24.9809 35.8191L24.9833 35.8215Z" fill="white" stroke="white" stroke-width="0.5"/>
<path d="M27.1174 34.6263C27.0507 34.6263 26.984 34.6215 26.9173 34.6096C26.6028 34.5521 26.3241 34.3629 26.1335 34.0707C25.8524 33.6444 25.769 33.0457 25.9072 32.4326C26.143 31.3812 26.9411 30.6675 27.7273 30.8088C28.0418 30.8663 28.3206 31.0555 28.5112 31.3477C28.7923 31.774 28.8757 32.3727 28.7375 32.9858C28.5231 33.9486 27.8345 34.6263 27.1174 34.6263ZM27.5248 31.7476C27.3152 31.7476 26.9626 32.0733 26.8363 32.6409C26.7434 33.0601 26.822 33.3786 26.9268 33.539C26.9745 33.6109 27.0269 33.654 27.0841 33.6636C27.2866 33.7019 27.6725 33.3714 27.806 32.7727C27.8989 32.3536 27.8203 32.035 27.7154 31.8746C27.6678 31.8027 27.6154 31.7596 27.5558 31.75C27.5463 31.75 27.5344 31.7476 27.5224 31.7476H27.5248Z" fill="white" stroke="white" stroke-width="0.5"/>
<path d="M34.5 64C34.5 64.3517 34.3055 64.7515 33.8096 65.1778C33.3153 65.6028 32.5708 66.0082 31.6073 66.3585C29.6845 67.0577 26.9949 67.5 24 67.5C21.0051 67.5 18.3155 67.0577 16.3927 66.3585C15.4292 66.0082 14.6847 65.6028 14.1904 65.1778C13.6945 64.7515 13.5 64.3517 13.5 64C13.5 63.6483 13.6945 63.2485 14.1904 62.8222C14.6847 62.3972 15.4292 61.9918 16.3927 61.6415C18.3155 60.9423 21.0051 60.5 24 60.5C26.9949 60.5 29.6845 60.9423 31.6073 61.6415C32.5708 61.9918 33.3153 62.3972 33.8096 62.8222C34.3055 63.2485 34.5 63.6483 34.5 64Z" fill="#A5A5A5" stroke="#9E9E9E"/>
</svg>
